<!-- This Source Code Form is subject to the terms of the Mozilla Public
   - License, v. 2.0. If a copy of the MPL was not distributed with this
   - file, You can obtain one at http://mozilla.org/MPL/2.0/. -->
<svg xmlns="http://www.w3.org/2000/svg" width="20" height="20" viewBox="-2 -2 20 20"><defs><filter id="shadow" x="-20%" y="-20%" width="140%" height="140%"><feColorMatrix type="saturate" values="0" in="SourceAlpha" result="black"/><feGaussianBlur in="black" stdDeviation="1" result="shadow"/><feComponentTransfer in="shadow" result="sharper"><feFuncA type="linear" slope="1.5"/></feComponentTransfer><feMerge><feMergeNode in="sharper"/><feMergeNode in="SourceGraphic"/></feMerge></filter></defs><path d="M3,4H13a1,1,0,0,0,0-2H3A1,1,0,0,0,3,4ZM13,7H3A1,1,0,0,0,3,9H13a1,1,0,0,0,0-2Zm0,5H3a1,1,0,0,0,0,2H13a1,1,0,0,0,0-2Z" fill="#ffffff" filter="url(#shadow)"/></svg>