<!-- This Source Code Form is subject to the terms of the Mozilla Public
   - License, v. 2.0. If a copy of the MPL was not distributed with this
   - file, You can obtain one at http://mozilla.org/MPL/2.0/. -->
<svg xmlns="http://www.w3.org/2000/svg" width="20" height="20" viewBox="-2 -2 20 20"><defs><filter id="shadow" x="-20%" y="-20%" width="140%" height="140%"><feColorMatrix type="saturate" values="0" in="SourceAlpha" result="black"/><feGaussianBlur in="black" stdDeviation="1" result="shadow"/><feComponentTransfer in="shadow" result="sharper"><feFuncA type="linear" slope="1.5"/></feComponentTransfer><feMerge result="merged"><feMergeNode in="sharper"/><feMergeNode in="SourceGraphic"/></feMerge></filter></defs><path d="M15,1a1,1,0,0,0-1,1V4.418A6.995,6.995,0,1,0,8,15a6.954,6.954,0,0,0,4.95-2.05,1,1,0,0,0-1.414-1.414A5.019,5.019,0,1,1,12.549,6H10a1,1,0,0,0,0,2h5a1,1,0,0,0,1-1V2A1,1,0,0,0,15,1Z" fill="#ffffff" filter="url(#shadow)"/></svg>